<svg width="7" height="15" viewBox="0 0 7 15" fill="none" xmlns="http://www.w3.org/2000/svg">
    <g opacity="0.5">
        <path opacity="0.5" d="M6.27904 4.24C6.22032 4.23894 6.16199 4.24959 6.10744 4.27133C6.05288 4.29306 6.00321 4.32545 5.96132 4.3666C5.91942 4.40775 5.88614 4.45684 5.86343 4.51099C5.84072 4.56514 5.82903 4.62328 5.82904 4.682V11.21C5.8217 11.8429 5.56602 12.4475 5.11709 12.8936C4.66817 13.3398 4.06192 13.5916 3.42903 13.595C2.79649 13.595 2.18986 13.3437 1.74258 12.8965C1.29531 12.4492 1.04404 11.8425 1.04404 11.21V2.594C1.04225 2.38186 1.08331 2.17155 1.16476 1.97566C1.24621 1.77977 1.36637 1.60234 1.51804 1.454C1.66813 1.29917 1.84779 1.17607 2.04637 1.092C2.24495 1.00793 2.4584 0.964613 2.67404 0.964613C2.88968 0.964613 3.10312 1.00793 3.3017 1.092C3.50027 1.17607 3.67994 1.29917 3.83003 1.454C3.9817 1.60234 4.10187 1.77977 4.18332 1.97566C4.26477 2.17155 4.30582 2.38186 4.30403 2.594V9.925C4.30551 10.0319 4.28555 10.138 4.24531 10.2371C4.20508 10.3362 4.1454 10.4262 4.06979 10.5018C3.99419 10.5774 3.90419 10.6371 3.80513 10.6773C3.70607 10.7175 3.59995 10.7375 3.49304 10.736C3.27994 10.7329 3.07662 10.6461 2.92696 10.4943C2.77729 10.3426 2.69328 10.1381 2.69304 9.925V6.111C2.68764 5.99755 2.63877 5.89052 2.55656 5.81214C2.47436 5.73375 2.36513 5.69002 2.25154 5.69002C2.13795 5.69002 2.02872 5.73375 1.94652 5.81214C1.86431 5.89052 1.81544 5.99755 1.81004 6.111V9.925C1.80566 10.1479 1.84686 10.3692 1.93112 10.5756C2.01538 10.782 2.14092 10.9689 2.30003 11.125C2.45544 11.285 2.64227 11.4112 2.84878 11.4955C3.0553 11.5798 3.27703 11.6205 3.50003 11.615C3.72271 11.6181 3.94373 11.5763 4.1499 11.4921C4.35607 11.4079 4.54318 11.2831 4.70004 11.125C4.86061 10.97 4.9871 10.7832 5.07147 10.5766C5.15584 10.37 5.19622 10.1481 5.19003 9.925V2.594C5.19353 2.26366 5.12983 1.93605 5.00279 1.63108C4.87575 1.32612 4.68802 1.05017 4.45103 0.820004C4.21989 0.583643 3.94385 0.395842 3.63913 0.267627C3.33441 0.139411 3.00714 0.0733643 2.67654 0.0733643C2.34594 0.0733643 2.01867 0.139411 1.71394 0.267627C1.40922 0.395842 1.13319 0.583643 0.902038 0.820004C0.665046 1.05017 0.477319 1.32612 0.35028 1.63108C0.223241 1.93605 0.159543 2.26366 0.163039 2.594V11.209C0.163039 12.0789 0.508613 12.9132 1.12373 13.5283C1.73885 14.1434 2.57313 14.489 3.44304 14.489C4.31295 14.489 5.14722 14.1434 5.76234 13.5283C6.37746 12.9132 6.72304 12.0789 6.72304 11.209V4.682C6.72399 4.62353 6.71315 4.56546 6.69115 4.51127C6.66915 4.45708 6.63643 4.40789 6.59499 4.36662C6.55354 4.32536 6.50421 4.29288 6.44992 4.27113C6.39563 4.24937 6.33751 4.23879 6.27904 4.24Z" fill="black"/>
    </g>
</svg>
