<svg width="22" height="22" viewBox="0 0 22 22" fill="none" xmlns="http://www.w3.org/2000/svg">
    <path d="M11.058 8.038C10.4607 8.038 9.87681 8.21511 9.38017 8.54696C8.88354 8.8788 8.49645 9.35046 8.26788 9.90229C8.0393 10.4541 7.9795 11.0613 8.09603 11.6472C8.21255 12.233 8.50018 12.7711 8.92253 13.1935C9.34489 13.6158 9.883 13.9034 10.4688 14.02C11.0546 14.1365 11.6619 14.0767 12.2137 13.8481C12.7655 13.6195 13.2372 13.2325 13.569 12.7358C13.9009 12.2392 14.078 11.6553 14.078 11.058C14.0819 10.6603 14.0064 10.2659 13.856 9.89772C13.7056 9.52957 13.4833 9.19511 13.2021 8.9139C12.9209 8.63269 12.5864 8.41038 12.2183 8.25998C11.8501 8.10959 11.4557 8.03412 11.058 8.038ZM11.058 12.87C10.6996 12.87 10.3493 12.7637 10.0513 12.5646C9.75332 12.3655 9.52107 12.0825 9.38393 11.7514C9.24678 11.4203 9.21089 11.056 9.28081 10.7045C9.35073 10.353 9.52331 10.0301 9.77672 9.77672C10.0301 9.5233 10.353 9.35073 10.7045 9.28081C11.056 9.2109 11.4203 9.24678 11.7514 9.38392C12.0825 9.52107 12.3655 9.75332 12.5646 10.0513C12.7637 10.3493 12.87 10.6996 12.87 11.058C12.8583 11.5349 12.6637 11.989 12.3264 12.3264C11.989 12.6637 11.5349 12.8583 11.058 12.87Z" fill="#4FB1EB"/>
    <path d="M19.6 8.836H18.544C18.427 8.836 18.31 8.836 18.31 8.719C18.2051 8.31044 18.0478 7.91717 17.842 7.549C17.8262 7.53388 17.8136 7.51572 17.8051 7.49561C17.7965 7.4755 17.792 7.45386 17.792 7.432C17.792 7.41014 17.7965 7.3885 17.8051 7.36839C17.8136 7.34828 17.8262 7.33012 17.842 7.315L18.661 6.496C18.7991 6.36988 18.9095 6.21634 18.985 6.0452C19.0604 5.87405 19.0994 5.68905 19.0994 5.502C19.0994 5.31495 19.0604 5.12995 18.985 4.9588C18.9095 4.78766 18.7991 4.63412 18.661 4.508L17.491 3.338C17.2096 3.11071 16.8588 2.98673 16.497 2.98673C16.1352 2.98673 15.7844 3.11071 15.503 3.338L14.684 4.157H14.45C14.099 4.04 13.631 3.806 13.28 3.689C13.28 3.572 13.163 3.572 13.163 3.455V2.4C13.1573 2.02995 13.0076 1.67671 12.7456 1.41529C12.4836 1.15388 12.1301 1.0049 11.76 1H10.24C9.87047 1.00567 9.51766 1.155 9.25633 1.41633C8.995 1.67766 8.84567 2.03047 8.84 2.4V3.456C8.84 3.573 8.84 3.69 8.723 3.69C8.31444 3.79486 7.92117 3.95217 7.553 4.158C7.436 4.275 7.436 4.275 7.319 4.158L6.5 3.339C6.21857 3.11171 5.86775 2.98773 5.506 2.98773C5.14425 2.98773 4.79343 3.11171 4.512 3.339L3.342 4.509C3.20386 4.63512 3.09353 4.78866 3.01804 4.9598C2.94256 5.13095 2.90357 5.31595 2.90357 5.503C2.90357 5.69005 2.94256 5.87505 3.01804 6.0462C3.09353 6.21734 3.20386 6.37088 3.342 6.497L4.161 7.316V7.55C3.98484 7.93163 3.82863 8.32216 3.693 8.72C3.576 8.72 3.576 8.837 3.459 8.837H2.4C2.02995 8.84269 1.67671 8.99243 1.41529 9.2544C1.15388 9.51638 1.0049 9.86994 1 10.24V11.76C1.00567 12.1295 1.155 12.4823 1.41633 12.7437C1.67766 13.005 2.03047 13.1543 2.4 13.16H3.456C3.573 13.16 3.69 13.16 3.69 13.277C3.79486 13.6856 3.95217 14.0788 4.158 14.447C4.17379 14.4621 4.18636 14.4803 4.19494 14.5004C4.20353 14.5205 4.20795 14.5421 4.20795 14.564C4.20795 14.5859 4.20353 14.6075 4.19494 14.6276C4.18636 14.6477 4.17379 14.6659 4.158 14.681L3.339 15.5C3.20086 15.6261 3.09053 15.7797 3.01504 15.9508C2.93956 16.1219 2.90057 16.3069 2.90057 16.494C2.90057 16.6811 2.93956 16.8661 3.01504 17.0372C3.09053 17.2083 3.20086 17.3619 3.339 17.488L4.509 18.658C4.79043 18.8853 5.14125 19.0093 5.503 19.0093C5.86475 19.0093 6.21557 18.8853 6.497 18.658L7.316 17.839H7.55C7.99462 18.0831 8.46393 18.2792 8.95 18.424V19.6C8.95567 19.9695 9.105 20.3223 9.36633 20.5837C9.62766 20.845 9.98047 20.9943 10.35 21H11.87C12.0472 20.9949 12.2216 20.9544 12.3828 20.8808C12.5441 20.8073 12.689 20.7021 12.809 20.5716C12.9289 20.4411 13.0215 20.2879 13.0813 20.121C13.1411 19.9542 13.1668 19.777 13.157 19.6V18.544C13.157 18.427 13.157 18.31 13.274 18.31C13.6826 18.2051 14.0758 18.0478 14.444 17.842C14.561 17.725 14.561 17.725 14.678 17.842L15.497 18.661C15.7784 18.8883 16.1292 19.0123 16.491 19.0123C16.8528 19.0123 17.2036 18.8883 17.485 18.661L18.655 17.491C18.7931 17.3649 18.9035 17.2113 18.979 17.0402C19.0544 16.8691 19.0934 16.6841 19.0934 16.497C19.0934 16.3099 19.0544 16.1249 18.979 15.9538C18.9035 15.7827 18.7931 15.6291 18.655 15.503L17.836 14.684V14.45C18.0122 14.0684 18.1684 13.6778 18.304 13.28C18.421 13.28 18.421 13.163 18.538 13.163H19.6C19.9695 13.1573 20.3223 13.008 20.5837 12.7467C20.845 12.4853 20.9943 12.1325 21 11.763V10.24C20.9943 9.87047 20.845 9.51766 20.5837 9.25633C20.3223 8.995 19.9695 8.84567 19.6 8.84V8.836ZM19.951 11.76C19.9468 11.8207 19.9208 11.8778 19.8778 11.9208C19.8348 11.9638 19.7777 11.9898 19.717 11.994H18.661C18.3757 11.9963 18.0982 12.0878 17.8674 12.2556C17.6366 12.4234 17.4641 12.6592 17.374 12.93C17.257 13.281 17.023 13.63 16.906 13.983C16.7686 14.246 16.7172 14.5455 16.7592 14.8392C16.8012 15.1329 16.9344 15.4061 17.14 15.62L17.959 16.439C18.076 16.439 18.076 16.556 17.959 16.673L16.789 17.843C16.789 17.96 16.672 17.96 16.555 17.843L15.736 17.024C15.5221 16.8186 15.2492 16.6856 14.9557 16.6436C14.6622 16.6016 14.3629 16.6528 14.1 16.79C13.7724 16.9942 13.418 17.1517 13.047 17.258C12.7675 17.3334 12.5222 17.5023 12.352 17.7364C12.1817 17.9705 12.0967 18.2559 12.111 18.545V19.6C12.1068 19.6607 12.0808 19.7178 12.0378 19.7608C11.9948 19.8038 11.9377 19.8298 11.877 19.834H10.357C10.2963 19.8298 10.2392 19.8038 10.1962 19.7608C10.1532 19.7178 10.1272 19.6607 10.123 19.6V17.959C10.1006 17.8299 10.046 17.7086 9.96416 17.6064C9.88234 17.5041 9.77599 17.4242 9.655 17.374C9.13 17.2305 8.62077 17.0345 8.135 16.789C7.91458 16.6939 7.67436 16.6538 7.435 16.672C7.08919 16.6626 6.75337 16.7886 6.499 17.023L5.68 17.842C5.68 17.959 5.563 17.959 5.446 17.842L4.276 16.672C4.159 16.672 4.159 16.555 4.276 16.438L5.095 15.619C5.3006 15.4051 5.4338 15.1319 5.47579 14.8382C5.51777 14.5445 5.46643 14.245 5.329 13.982C5.12458 13.6548 4.96674 13.3007 4.86 12.93C4.78456 12.6505 4.61574 12.4052 4.38162 12.235C4.14749 12.0647 3.86214 11.9797 3.573 11.994H2.521C2.46032 11.9898 2.40321 11.9638 2.36021 11.9208C2.3172 11.8778 2.2912 11.8207 2.287 11.76V10.24C2.2912 10.1793 2.3172 10.1222 2.36021 10.0792C2.40321 10.0362 2.46032 10.0102 2.521 10.006H3.573C3.85835 10.0037 4.13583 9.91223 4.36661 9.7444C4.59738 9.57656 4.7699 9.34076 4.86 9.07C4.977 8.719 5.211 8.37 5.328 8.017C5.46543 7.75403 5.51677 7.45453 5.47479 7.16079C5.4328 6.86706 5.2996 6.59394 5.094 6.38L4.275 5.561C4.158 5.561 4.158 5.444 4.275 5.327L5.445 4.157C5.445 4.04 5.562 4.04 5.679 4.157L6.498 4.976C6.71194 5.1816 6.98506 5.3148 7.27879 5.35679C7.57253 5.39877 7.87203 5.34743 8.135 5.21C8.46256 5.00585 8.81697 4.84833 9.188 4.742C9.46749 4.66656 9.71276 4.49774 9.88303 4.26362C10.0533 4.02949 10.1383 3.74414 10.124 3.455V2.4C10.1282 2.33932 10.1542 2.28221 10.1972 2.23921C10.2402 2.1962 10.2973 2.1702 10.358 2.166H11.878C11.9387 2.1702 11.9958 2.1962 12.0388 2.23921C12.0818 2.28221 12.1078 2.33932 12.112 2.4V3.456C12.1143 3.74135 12.2058 4.01883 12.3736 4.24961C12.5414 4.48038 12.7772 4.6529 13.048 4.743C13.399 4.86 13.748 5.094 14.101 5.211C14.3702 5.32019 14.6635 5.35607 14.9511 5.31496C15.2387 5.27385 15.5102 5.15724 15.738 4.977L16.557 4.158C16.557 4.041 16.674 4.041 16.791 4.158L17.961 5.328C18.078 5.328 18.078 5.445 17.961 5.562L17.142 6.381C16.9364 6.59494 16.8032 6.86806 16.7612 7.16179C16.7192 7.45553 16.7706 7.75503 16.908 8.018C17.1122 8.34556 17.2697 8.69997 17.376 9.071C17.4514 9.3505 17.6203 9.59576 17.8544 9.76603C18.0885 9.93631 18.3739 10.0213 18.663 10.007H19.716C19.7767 10.0112 19.8338 10.0372 19.8768 10.0802C19.9198 10.1232 19.9458 10.1803 19.95 10.241V11.76H19.951Z" fill="#4FB1EB" stroke="#4FB1EB" stroke-width="0.2"/>
</svg>
